HIERARCHY
ROOT Hips
{
  OFFSET 90.7885 88.945 -76.2838
  CHANNELS 6 Xposition Yposition Zposition Zrotation Xrotation Yrotation
  JOINT LeftUpLeg
  {
    OFFSET 8.64259 1.95398 -2.38835
    CHANNELS 3 Zrotation Xrotation Yrotation
    JOINT LeftLeg
    {
      OFFSET 43.7702 0 0
      CHANNELS 3 Zrotation Xrotation Yrotation
      JOINT LeftFoot
      {
        OFFSET 40.6238 0 0
        CHANNELS 3 Zrotation Xrotation Yrotation
        JOINT LeftToeBase
        {
          OFFSET 12.7242 0 0
          CHANNELS 3 Zrotation Xrotation Yrotation
          End Site
          {
            OFFSET 0 0 0
          }
        }
      }
    }
  }
  JOINT RightUpLeg
  {
    OFFSET -8.2249 1.95398 -2.59336
    CHANNELS 3 Zrotation Xrotation Yrotation
    JOINT RightLeg
    {
      OFFSET 43.5653 0 0
      CHANNELS 3 Zrotation Xrotation Yrotation
      JOINT RightFoot
      {
        OFFSET 40.6238 0 0
        CHANNELS 3 Zrotation Xrotation Yrotation
        JOINT RightToeBase
        {
          OFFSET 12.7242 0 0
          CHANNELS 3 Zrotation Xrotation Yrotation
          End Site
          {
            OFFSET 0 0 0
          }
        }
      }
    }
  }
  JOINT Spine
  {
    OFFSET 0.165834 0.87714 6.61349
    CHANNELS 3 Zrotation Xrotation Yrotation
    JOINT Spine1
    {
      OFFSET 7.38963 1.71661e-005 0
      CHANNELS 3 Zrotation Xrotation Yrotation
      JOINT Spine2
      {
        OFFSET 11.9445 1.14441e-005 0
        CHANNELS 3 Zrotation Xrotation Yrotation
        JOINT Spine3
        {
          OFFSET 14.7254 4.19617e-005 0
          CHANNELS 3 Zrotation Xrotation Yrotation
          JOINT Spine4
          {
            OFFSET 10.9679 0 0
            CHANNELS 3 Zrotation Xrotation Yrotation
            JOINT RightShoulder
            {
              OFFSET 2.46616 -1.6653 3.69651
              CHANNELS 3 Zrotation Xrotation Yrotation
              JOINT RightArm
              {
                OFFSET 13.0012 0 0
                CHANNELS 3 Zrotation Xrotation Yrotation
                JOINT RightForeArm
                {
                  OFFSET 28.7848 1.52588e-005 0
                  CHANNELS 3 Zrotation Xrotation Yrotation
                  JOINT RightHand
                  {
                    OFFSET 26.5688 1.52588e-005 0
                    CHANNELS 3 Zrotation Xrotation Yrotation
                    End Site
                    {
                      OFFSET 0 0 0
                    }
                  }
                }
              }
            }
            JOINT LeftShoulder
            {
              OFFSET 2.38034 -1.29275 -3.7523
              CHANNELS 3 Zrotation Xrotation Yrotation
              JOINT LeftArm
              {
                OFFSET 16.3182 6.10352e-005 0
                CHANNELS 3 Zrotation Xrotation Yrotation
                JOINT LeftForeArm
                {
                  OFFSET 27.0901 0 0
                  CHANNELS 3 Zrotation Xrotation Yrotation
                  JOINT LeftHand
                  {
                    OFFSET 24.5451 1.52588e-005 0
                    CHANNELS 3 Zrotation Xrotation Yrotation
                    End Site
                    {
                      OFFSET 0 0 0
                    }
                  }
                }
              }
            }
            JOINT Neck
            {
              OFFSET 5.0226 -0.0266342 0
              CHANNELS 3 Zrotation Xrotation Yrotation
              JOINT Head
              {
                OFFSET 6.69363 2.86102e-005 0
                CHANNELS 3 Zrotation Xrotation Yrotation
                End Site
                {
                  OFFSET 0 0 0
                }
              }
            }
          }
        }
      }
    }
  }
}
MOTION
Frames:	18
Frame Time:	0.0416667
148.537 15.2746 122.1 -7.71341 -1.94984 -90.8068 -172.007 2.22499 96.9326 -25.3042 8.53705 -2.58146 59.7347 0.37095 -1.84339 73.6155 -13.4601 43.3666 166.297 -0.325123 80.8009 -26.3263 -19.4326 -0.0378406 74.0106 -6.75364 0.519841 34.8881 -2.69588 5.78351 -0.232241 6.28762 -90.0314 14.2986 -0.475504 0.00340778 2.62781 -0.474885 0.0243106 -19.908 -0.454529 -0.139654 0.10464 -0.454537 -0.139667 96.2832 1.94421 -106.981 -14.6247 73.9773 -12.0861 -25.8067 -25.6629 -108.225 -24.0861 -2.3789 0.110645 -83.5167 -7.08475 79.8418 -20.6177 -71.5011 -53.4623 28.5331 1.86006 -110.48 -3.19648 -0.0452691 -10.6572 44.987 0.0841392 -7.90726 -20.2712 2.34198 12.2987 
148.409 14.5475 122.246 -9.74748 -4.04845 -89.3589 -171.262 0.887175 99.0451 -26.2903 11.6909 -1.94897 60.5934 0.580467 -1.69257 74.1646 -13.449 44.1107 165.51 -5.02331 81.6552 -22.9948 -17.9326 0.915656 71.9477 -5.96753 -0.637827 36.838 -3.53912 8.02356 -0.48099 6.55057 -90.1763 13.7719 -1.03935 -0.215111 2.10139 -1.0478 -0.169141 -20.4365 -0.926649 -0.517532 -0.423812 -0.926635 -0.517535 96.6753 4.13412 -107.288 -13.3446 78.9812 -10.0285 -42.0283 -26.8316 -119.342 -35.0534 -1.83383 -9.10412 -83.3409 -6.65916 80.1578 -20.9644 -71.3064 -53.3856 26.9552 2.35402 -110.343 -0.684745 -0.157776 -8.75828 43.3512 3.23862 -0.541622 -14.1409 3.35798 0.0101233 
148.422 14.6664 122.239 -9.41545 -3.86423 -89.5537 -171.376 1.16876 98.796 -26.1601 11.2972 -2.01151 60.7207 0.645364 -1.6568 74.3033 -13.5106 44.6065 165.629 -4.31567 81.5378 -23.4787 -18.0753 0.833492 71.9443 -5.93098 -0.452481 35.1491 -3.60013 8.2871 -0.414618 6.49233 -90.0717 13.8897 -0.856866 -0.0290346 2.21907 -0.85733 0.00870856 -20.3182 -0.808529 -0.285228 -0.30552 -0.808531 -0.285245 96.0759 2.46919 -108.297 -21.5964 77.9998 -2.27623 -38.6928 -26.6827 -116.176 -32.7398 -1.34488 -10.1626 -83.1075 -3.21098 79.3946 -24.9495 -70.9681 -53.5275 28.2715 1.81764 -111.451 -1.30001 -0.123463 -7.69713 42.7445 1.98387 -3.91188 -13.8308 3.54881 3.23866 
148.447 14.6697 122.273 -9.45749 -3.797 -89.7557 -171.513 0.999749 98.5278 -26.0767 10.878 -1.99246 60.7761 0.685244 -1.97121 75.0369 -13.4065 45.245 165.474 -4.1448 81.2571 -23.7386 -18.3345 0.834882 72.1121 -6.00763 -0.602278 36.5357 -3.59481 8.20829 -0.420383 6.4882 -89.9966 13.8983 -0.83162 0.118337 2.22762 -0.825627 0.154801 -20.3096 -0.828741 -0.137095 -0.297003 -0.828742 -0.137103 95.7926 1.70371 -108.741 -23.2137 77.854 -0.909985 -38.8246 -26.4122 -116.398 -32.9103 -1.42013 -9.87299 -83.2043 -2.06129 78.555 -25.4102 -71.7095 -52.64 28.5487 1.89614 -111.828 -1.87602 -0.103954 -7.54633 41.4896 1.2324 -5.57531 -12.966 3.55623 4.34768 
148.403 14.6562 122.272 -9.64873 -3.77802 -89.764 -171.457 0.921257 98.5825 -26.4075 11.0762 -2.03614 60.3398 0.475016 -1.7225 74.8991 -13.4485 45.2286 165.389 -4.53628 81.2191 -23.3262 -18.3757 0.828609 72.0197 -5.99964 -0.666805 36.6062 -3.53301 8.02639 -0.437782 6.52693 -89.9951 13.8208 -0.865574 0.1249 2.15014 -0.85923 0.162869 -20.3873 -0.863089 -0.141025 -0.374657 -0.863084 -0.141023 95.902 2.72479 -109.248 -25.739 78.7432 2.7323 -40.1433 -26.6262 -117.899 -33.0949 -1.73712 -8.89814 -83.2458 -2.25717 78.5096 -24.4159 -72.2242 -52.1447 28.4529 2.04681 -111.683 -1.81032 -0.106832 -7.69289 42.4096 1.45211 -5.42451 -13.891 3.69967 4.33718 
148.434 14.6766 122.267 -9.55603 -3.70155 -89.7328 -171.476 1.09055 98.5927 -26.454 11.083 -2.03248 60.5891 0.577657 -1.71364 76.894 -13.0789 46.6971 165.437 -4.426 81.2802 -23.3324 -18.4604 0.8185 72.019 -6.01748 -0.793337 36.9742 -3.41734 7.65932 -0.45033 6.47199 -89.9161 13.9313 -0.851643 0.282722 2.26055 -0.838383 0.319929 -20.2768 -0.897243 0.0136874 -0.264179 -0.897232 0.0136921 95.2074 0.18257 -109.654 -26.2888 77.5598 1.44543 -38.8468 -26.3228 -116.223 -32.9703 -1.37461 -10.056 -83.1129 -1.21379 78.4238 -24.218 -71.8514 -50.8528 28.5074 1.83319 -112.145 -1.54083 -0.114692 -7.6907 39.9053 0.559297 -7.44747 -11.6669 3.66708 6.01489 
148.464 14.6829 122.269 -9.61399 -3.76314 -89.7278 -171.432 0.951675 98.6185 -26.2381 11.238 -2.01243 60.7168 0.641905 -1.6376 78.6898 -12.6628 47.7981 165.443 -4.44283 81.2806 -23.456 -18.4054 0.825935 72.2109 -6.08432 -0.668401 34.959 -3.5439 8.13954 -0.483135 6.47904 -89.9057 13.9175 -0.911622 0.311474 2.24682 -0.897038 0.351269 -20.2909 -0.963074 0.0230708 -0.27826 -0.9631 0.0230499 95.104 0.398381 -110.248 -27.7985 77.6628 3.18718 -39.1651 -26.3344 -116.549 -32.4852 -1.40821 -10.0315 -82.8147 -0.966768 79.3076 -26.0241 -71.1463 -52.2627 28.5522 1.68207 -112.272 -1.98588 -0.101379 -7.59826 40.2659 0.702175 -7.55601 -12.0047 3.85973 6.03913 
148.483 14.6907 122.25 -9.51519 -3.76381 -89.6456 -171.4 1.0147 98.6985 -26.0283 11.2677 -2.00427 60.1959 0.444118 -1.38852 81.0182 -11.7952 47.456 165.514 -4.27944 81.3935 -23.6417 -18.3129 0.855149 72.2495 -6.1021 -0.77306 36.1179 -3.54947 8.0996 -0.503646 6.51606 -89.9323 13.8433 -0.965469 0.264345 2.17274 -0.952908 0.306588 -20.3653 -1.00028 -0.038059 -0.352659 -1.00028 -0.0380678 95.2468 1.36766 -110.588 -30.2159 78.3708 6.20279 -39.1166 -26.8173 -116.831 -33.0485 -1.4631 -9.78604 -82.8716 -1.49849 79.3784 -25.1088 -72.0765 -52.3597 28.1628 2.05732 -111.971 -1.54303 -0.114305 -7.65223 42.205 0.997938 -7.03738 -13.7172 3.99572 5.34098 
148.367 14.6663 122.274 -9.64231 -3.79601 -89.7611 -171.493 1.11003 98.5675 -26.9405 11.1582 -2.04442 61.1872 0.777545 -1.3562 78.9579 -13.1987 51.4457 165.365 -4.68605 81.2385 -22.9885 -18.3355 0.813101 71.8642 -5.95796 -0.64294 37.4171 -3.54718 8.02664 -0.543686 6.47729 -89.8515 13.9217 -1.00521 0.432679 2.25104 -0.985161 0.476473 -20.2872 -1.08875 0.110541 -0.274511 -1.08876 0.110512 94.8476 -0.71609 -110.222 -25.1201 77.501 -0.369311 -39.2758 -26.1265 -116.15 -33.0205 -1.45445 -9.80737 -82.8845 -0.385245 78.7701 -22.1465 -72.2891 -48.4725 28.1335 1.93816 -112.253 -2.00157 -0.100842 -7.55572 39.7254 0.515796 -8.43332 -11.5379 4.10063 6.06141 
148.452 14.672 122.264 -9.57108 -3.72174 -89.6674 -171.421 1.00558 98.6683 -26.2775 11.2025 -2.02758 60.3666 0.495116 -1.58045 83.9268 -11.2668 51.102 165.487 -4.4261 81.3412 -23.4391 -18.3567 0.825401 72.1374 -6.05454 -0.734651 36.3043 -3.57809 8.17206 -0.562434 6.48987 -89.8617 13.8967 -1.04744 0.417313 2.22609 -1.02806 0.463012 -20.3124 -1.12442 0.0831878 -0.299765 -1.12442 0.0831913 94.6901 0.625767 -112.031 -33.7169 78.0668 9.55975 -39.237 -26.7898 -116.707 -33.0295 -1.46467 -9.8179 -82.7966 -0.57281 79.1642 -22.3216 -72.5255 -48.9257 27.8096 2.17362 -112.103 -1.43698 -0.116667 -7.59392 40.1368 0.630045 -8.57099 -12.2113 4.22186 6.61628 
148.444 14.6486 122.254 -9.58137 -3.6482 -89.6605 -171.353 0.818096 98.6963 -25.9131 11.0268 -2.05639 60.3928 0.529249 -1.63892 86.682 -10.3662 52.4262 165.575 -4.29739 81.3497 -23.7198 -18.3244 0.768507 72.0664 -5.97845 -0.489338 35.378 -3.57034 8.19236 -0.558026 6.54755 -89.8944 13.781 -1.05492 0.351297 2.11042 -1.03844 0.397384 -20.4282 -1.11173 0.0179652 -0.415505 -1.11173 0.0179603 95.0097 0.960216 -111.13 -30.6665 78.8265 6.25191 -39.0372 -26.988 -116.509 -32.9989 -1.41962 -9.96008 -82.4376 -1.05781 80.6427 -26.3765 -71.7895 -53.4701 27.8349 2.11008 -112.1 -1.66878 -0.1134 -7.49653 42.3297 1.00788 -7.84698 -13.9315 4.38182 5.70997 
148.444 14.6507 122.254 -9.52661 -3.71824 -89.6809 -171.393 0.973195 98.6662 -26.1487 11.1735 -2.06995 60.7059 0.62882 -1.5768 88.3255 -9.93206 55.0074 165.512 -4.38541 81.3413 -23.4361 -18.2872 0.808462 72.0227 -5.98369 -0.574022 36.0805 -3.53336 8.05403 -0.575468 6.52821 -89.8684 13.8199 -1.07671 0.406992 2.14937 -1.05778 0.453964 -20.3893 -1.14926 0.0645224 -0.376692 -1.14925 0.0645215 94.7234 0.458909 -111.749 -33.5778 78.5405 8.90975 -39.0176 -26.7959 -116.691 -32.9964 -1.45742 -9.79471 -82.6543 -0.947408 79.848 -23.5065 -72.5788 -50.8262 27.6335 2.3119 -111.94 -1.56158 -0.115841 -7.47629 41.7444 1.02132 -7.88907 -13.2971 4.46171 5.13725 
148.464 14.6781 122.236 -9.44297 -3.8126 -89.6185 -171.433 1.08398 98.706 -26.1325 11.1429 -2.00069 60.6081 0.596393 -1.67516 90.4223 -9.11549 55.83 165.506 -4.3668 81.4573 -23.4361 -18.2407 0.893582 72.4602 -6.22039 -0.831176 36.5899 -3.41241 7.6754 -0.590083 6.49756 -89.8688 13.8814 -1.10576 0.411026 2.21083 -1.08655 0.459308 -20.3281 -1.17814 0.0596668 -0.315398 -1.17814 0.0596641 94.8719 -0.0616879 -110.71 -25.8384 77.775 0.612257 -39.0302 -26.3091 -115.877 -33.2235 -1.51788 -9.46848 -82.5834 -1.21172 80.216 -23.4833 -71.68 -51.1113 28.1132 1.96877 -111.841 -1.29541 -0.119303 -7.43081 41.3499 0.90836 -8.1175 -13.2761 4.38339 5.73102 
148.406 14.6255 122.275 -10.0193 -3.52586 -89.7709 -171.53 0.184968 98.6336 -25.5468 11.4981 -1.79412 59.6256 0.208906 -1.7676 94.3957 -7.3853 54.14 165.212 -5.03644 81.1473 -23.1952 -17.902 0.91384 72.6907 -6.33202 -0.606939 34.3217 -3.45729 7.92924 -0.550549 6.50062 -89.8297 13.8752 -1.00827 0.476075 2.20453 -0.986355 0.52001 -20.3337 -1.10475 0.151011 -0.321004 -1.10475 0.151005 94.3065 -2.24756 -110.846 -25.6581 75.5878 -1.8282 -39.5374 -25.8219 -114.751 -34.1084 -1.61395 -9.01684 -82.5157 -1.23567 80.4467 -23.7883 -69.7578 -51.2672 29.7699 1.1244 -111.66 -0.878118 -0.127871 -7.23172 39.5236 0.655717 -9.04766 -12.2441 4.40469 6.91649 
148.395 14.6785 122.415 -9.82119 -2.96618 -89.9364 -172.101 0.243286 98.4434 -25.0283 15.4559 -0.914798 59.1729 0.0681575 -2.9323 103.587 -3.61045 52.6006 164.751 -4.66413 80.962 -23.2716 -16.7692 1.27852 72.5532 -6.28434 -0.481981 34.0492 -3.43477 7.87999 -0.501784 6.49719 -89.8739 13.8815 -0.933175 0.377603 2.21086 -0.915644 0.418315 -20.327 -1.00351 0.0796684 -0.314305 -1.00353 0.0796616 95.831 0.168099 -107.3 -4.67185 74.9923 -20.3536 -40.3707 -25.3685 -114.572 -34.838 -1.7206 -8.79922 -82.1997 -0.949695 81.3846 -25.4183 -68.8962 -52.3812 30.2111 0.931962 -111.465 -0.167697 -0.132696 -6.52993 40.7169 1.08082 -7.22512 -13.0114 4.06056 5.73844 
148.492 14.8338 122.712 -9.66153 -2.02252 -90.4892 -172.821 1.2172 98.5793 -25.8838 24.8383 0.781507 59.0663 0.0478542 -5.51349 119.964 0.228855 41.4579 163.134 -3.72779 80.5797 -24.658 -12.0748 2.81554 74.0508 -6.85311 0.465317 32.6917 -2.50017 5.49949 -0.47166 6.48917 -89.8746 13.8973 -0.873757 0.368486 2.22662 -0.856674 0.406617 -20.3109 -0.944119 0.0888378 -0.298197 -0.944109 0.0888509 96.3538 1.05761 -105.967 4.2265 73.6886 -28.0362 -39.8335 -24.7849 -112.181 -33.6638 -1.59737 -9.19106 -81.8549 -0.395467 82.3922 -23.7389 -68.5371 -50.5405 31.0654 -0.13785 -112.778 -0.624641 -0.0907021 -4.50362 40.7148 1.36636 -5.67143 -13.2112 3.61493 5.03009 
148.587 15.088 123.166 -9.05931 0.0641122 -90.267 -173.769 3.63877 98.6474 -30.0577 39.6808 3.84413 59.6754 0.220398 -0.388724 129.593 -12.2038 -9.79931 160.959 -2.39041 81.0589 -26.5094 -3.5903 5.2001 76.0631 -7.83444 0.906672 32.9769 -1.89349 3.87083 -0.407054 6.42669 -89.82 14.0221 -0.718714 0.458473 2.35123 -0.697829 0.489649 -20.1853 -0.823265 0.221267 -0.172675 -0.823271 0.221277 96.0848 0.470744 -106.552 8.48545 73.0829 -31.1579 -42.331 -23.4174 -111.49 -33.2156 -2.03191 -8.02482 -81.8762 3.26147 80.5201 -17.7037 -71.7786 -42.7319 31.2257 -0.2197 -114.15 -3.19582 -0.10258 -2.69228 39.0683 1.01471 -5.7321 -12.2893 3.22881 5.4515 
148.679 15.503 123.869 -8.78726 2.52045 -90.8108 -175.069 5.40098 97.9901 -34.5381 50.2237 7.97528 56.0109 -1.13979 -0.989058 84.753 0.2319 -52.3614 158.676 -0.686899 81.1293 -29.1594 3.54745 7.45199 77.8468 -8.84795 0.28627 33.7298 -0.959577 1.25382 -0.345556 6.32024 -89.7057 14.2353 -0.540039 0.665573 2.56435 -0.510207 0.68871 -19.971 -0.71512 0.472494 0.0416671 -0.715096 0.47251 96.5671 2.31068 -106.142 22.9999 70.4797 -41.132 -47.8287 -20.6163 -109.5 -31.1613 -2.64931 -6.61423 -80.6937 4.1927 84.746 -22.5435 -65.5298 -48.792 32.2099 -1.55379 -113.169 -2.21701 -0.0865234 -2.48437 36.5709 1.31259 -3.74204 -11.6509 2.66401 3.50137 
